<mxfile host="app.diagrams.net" modified="2022-03-06T14:25:33.067Z" agent="5.0 (Macintosh; Intel Mac OS X 10_15_7) AppleWebKit/537.36 (KHTML, like Gecko) Chrome/99.0.4844.51 Safari/537.36" etag="2XHLx_vu29nIcSTSXmv0" version="16.6.5" type="github">
  <diagram id="ThxzSvFDK9RwQudSGVd2" name="Page-1">
    <mxGraphModel dx="946" dy="646" grid="0" gridSize="10" guides="1" tooltips="1" connect="1" arrows="1" fold="1" page="1" pageScale="1" pageWidth="827" pageHeight="1169" math="0" shadow="0">
      <root>
        <mxCell id="0" />
        <mxCell id="1" parent="0" />
        <mxCell id="qCkdWTW4GldpyueGsAuT-1" value="传输协议公平性优化" style="rounded=1;whiteSpace=wrap;html=1;" vertex="1" parent="1">
          <mxGeometry x="362" y="168" width="120" height="60" as="geometry" />
        </mxCell>
        <mxCell id="qCkdWTW4GldpyueGsAuT-2" value="面向QoE公平带宽分配" style="rounded=1;whiteSpace=wrap;html=1;" vertex="1" parent="1">
          <mxGeometry x="163" y="266" width="157" height="44" as="geometry" />
        </mxCell>
        <mxCell id="qCkdWTW4GldpyueGsAuT-3" value="基于延时拥塞控制算法TCP友好性优化" style="rounded=1;whiteSpace=wrap;html=1;" vertex="1" parent="1">
          <mxGeometry x="520" y="266" width="151" height="43" as="geometry" />
        </mxCell>
        <mxCell id="qCkdWTW4GldpyueGsAuT-4" value="集中式带宽分配方案" style="rounded=1;whiteSpace=wrap;html=1;" vertex="1" parent="1">
          <mxGeometry x="42" y="355" width="125" height="38" as="geometry" />
        </mxCell>
        <mxCell id="qCkdWTW4GldpyueGsAuT-5" value="分布式带宽分配方案" style="rounded=1;whiteSpace=wrap;html=1;" vertex="1" parent="1">
          <mxGeometry x="232" y="355" width="125" height="38" as="geometry" />
        </mxCell>
        <mxCell id="qCkdWTW4GldpyueGsAuT-6" value="集中式带宽分配方案" style="rounded=1;whiteSpace=wrap;html=1;" vertex="1" parent="1">
          <mxGeometry x="465" y="355" width="125" height="38" as="geometry" />
        </mxCell>
      </root>
    </mxGraphModel>
  </diagram>
</mxfile>
